<mxfile host="65bd71144e">
    <diagram id="LsDizntMgapA9bJ4H1J3" name="ページ1">
        <mxGraphModel dx="589" dy="1062" grid="1" gridSize="10" guides="1" tooltips="1" connect="1" arrows="1" fold="1" page="1" pageScale="1" pageWidth="827" pageHeight="1169" math="0" shadow="0">
            <root>
                <mxCell id="0"/>
                <mxCell id="1" parent="0"/>
                <mxCell id="24" value="" style="ellipse;shape=cloud;whiteSpace=wrap;html=1;" parent="1" vertex="1">
                    <mxGeometry x="60" y="10" width="120" height="80" as="geometry"/>
                </mxCell>
                <mxCell id="8" style="edgeStyle=none;rounded=0;orthogonalLoop=1;jettySize=auto;html=1;dashed=1;dashPattern=1 1;endArrow=none;endFill=0;startArrow=none;" parent="1" source="3" edge="1">
                    <mxGeometry relative="1" as="geometry">
                        <mxPoint x="64" y="840" as="targetPoint"/>
                    </mxGeometry>
                </mxCell>
                <mxCell id="2" value="Actor" style="shape=umlActor;verticalLabelPosition=bottom;verticalAlign=top;html=1;outlineConnect=0;" parent="1" vertex="1">
                    <mxGeometry x="50" y="60" width="30" height="60" as="geometry"/>
                </mxCell>
                <mxCell id="11" style="edgeStyle=none;rounded=0;orthogonalLoop=1;jettySize=auto;html=1;endArrow=none;endFill=0;dashed=1;dashPattern=1 1;" parent="1" source="4" edge="1">
                    <mxGeometry relative="1" as="geometry">
                        <mxPoint x="240" y="840" as="targetPoint"/>
                    </mxGeometry>
                </mxCell>
                <mxCell id="4" value="初期画面" style="rounded=0;whiteSpace=wrap;html=1;" parent="1" vertex="1">
                    <mxGeometry x="180" y="60" width="120" height="60" as="geometry"/>
                </mxCell>
                <mxCell id="3" value="" style="rounded=0;whiteSpace=wrap;html=1;" parent="1" vertex="1">
                    <mxGeometry x="52.5" y="150" width="25" height="620" as="geometry"/>
                </mxCell>
                <mxCell id="9" value="" style="edgeStyle=none;rounded=0;orthogonalLoop=1;jettySize=auto;html=1;dashed=1;dashPattern=1 1;endArrow=none;endFill=0;" parent="1" source="2" target="3" edge="1">
                    <mxGeometry relative="1" as="geometry">
                        <mxPoint x="64" y="840" as="targetPoint"/>
                        <mxPoint x="64.96000000000004" y="120" as="sourcePoint"/>
                    </mxGeometry>
                </mxCell>
                <mxCell id="10" value="" style="endArrow=classic;html=1;exitX=0.973;exitY=0.042;exitDx=0;exitDy=0;exitPerimeter=0;entryX=0.04;entryY=0.042;entryDx=0;entryDy=0;entryPerimeter=0;" parent="1" source="3" target="12" edge="1">
                    <mxGeometry width="50" height="50" relative="1" as="geometry">
                        <mxPoint x="250" y="460" as="sourcePoint"/>
                        <mxPoint x="200" y="176" as="targetPoint"/>
                    </mxGeometry>
                </mxCell>
                <mxCell id="13" value="ログイン" style="edgeLabel;html=1;align=center;verticalAlign=middle;resizable=0;points=[];" parent="10" vertex="1" connectable="0">
                    <mxGeometry x="-0.1758" y="-1" relative="1" as="geometry">
                        <mxPoint x="11" as="offset"/>
                    </mxGeometry>
                </mxCell>
                <mxCell id="12" value="" style="rounded=0;whiteSpace=wrap;html=1;" parent="1" vertex="1">
                    <mxGeometry x="227.5" y="150" width="25" height="620" as="geometry"/>
                </mxCell>
                <mxCell id="6aZgyOI2Fxb3oyuuGjvw-24" value="" style="edgeStyle=orthogonalEdgeStyle;rounded=0;orthogonalLoop=1;jettySize=auto;html=1;" parent="1" source="15" target="16" edge="1">
                    <mxGeometry relative="1" as="geometry"/>
                </mxCell>
                <mxCell id="15" value="" style="rounded=0;whiteSpace=wrap;html=1;" parent="1" vertex="1">
                    <mxGeometry x="382.5" y="60" width="120" height="60" as="geometry"/>
                </mxCell>
                <mxCell id="17" style="edgeStyle=none;rounded=0;orthogonalLoop=1;jettySize=auto;html=1;endArrow=none;endFill=0;dashed=1;dashPattern=1 1;" parent="1" edge="1">
                    <mxGeometry relative="1" as="geometry">
                        <mxPoint x="442" y="840" as="targetPoint"/>
                        <mxPoint x="442" y="120" as="sourcePoint"/>
                    </mxGeometry>
                </mxCell>
                <mxCell id="16" value="" style="rounded=0;whiteSpace=wrap;html=1;" parent="1" vertex="1">
                    <mxGeometry x="430" y="150" width="25" height="620" as="geometry"/>
                </mxCell>
                <mxCell id="18" value="" style="rounded=0;whiteSpace=wrap;html=1;" parent="1" vertex="1">
                    <mxGeometry x="580" y="60" width="120" height="60" as="geometry"/>
                </mxCell>
                <mxCell id="19" style="edgeStyle=none;rounded=0;orthogonalLoop=1;jettySize=auto;html=1;endArrow=none;endFill=0;dashed=1;dashPattern=1 1;" parent="1" edge="1">
                    <mxGeometry relative="1" as="geometry">
                        <mxPoint x="639.5" y="840" as="targetPoint"/>
                        <mxPoint x="639.5" y="120" as="sourcePoint"/>
                    </mxGeometry>
                </mxCell>
                <mxCell id="20" value="" style="rounded=0;whiteSpace=wrap;html=1;" parent="1" vertex="1">
                    <mxGeometry x="627.5" y="150" width="25" height="620" as="geometry"/>
                </mxCell>
                <mxCell id="21" value="こんばんわ" style="text;html=1;resizable=0;autosize=1;align=center;verticalAlign=middle;points=[];fillColor=none;strokeColor=none;rounded=0;" parent="1" vertex="1">
                    <mxGeometry x="77.5" y="40" width="80" height="20" as="geometry"/>
                </mxCell>
            </root>
        </mxGraphModel>
    </diagram>
    <diagram id="Wqnby-bU8wteUp2zIGOi" name="ユーザが問題を作成する">
        <mxGraphModel dx="589" dy="1062" grid="1" gridSize="10" guides="1" tooltips="1" connect="1" arrows="1" fold="1" page="1" pageScale="1" pageWidth="827" pageHeight="1169" math="0" shadow="0">
            <root>
                <mxCell id="B2CG1FiTHEinYyqI2vtw-0"/>
                <mxCell id="B2CG1FiTHEinYyqI2vtw-1" parent="B2CG1FiTHEinYyqI2vtw-0"/>
                <mxCell id="utzBI5hmlKz-owM-BOif-0" value="ログイン画面" style="rounded=0;whiteSpace=wrap;html=1;" parent="B2CG1FiTHEinYyqI2vtw-1" vertex="1">
                    <mxGeometry x="130" y="40" width="120" height="60" as="geometry"/>
                </mxCell>
                <mxCell id="utzBI5hmlKz-owM-BOif-1" style="edgeStyle=none;rounded=0;orthogonalLoop=1;jettySize=auto;html=1;endArrow=none;endFill=0;dashed=1;strokeWidth=2;" parent="B2CG1FiTHEinYyqI2vtw-1" edge="1">
                    <mxGeometry relative="1" as="geometry">
                        <mxPoint x="189.5" y="820" as="targetPoint"/>
                        <mxPoint x="189.5" y="100" as="sourcePoint"/>
                    </mxGeometry>
                </mxCell>
                <mxCell id="utzBI5hmlKz-owM-BOif-2" value="" style="rounded=0;whiteSpace=wrap;html=1;" parent="B2CG1FiTHEinYyqI2vtw-1" vertex="1">
                    <mxGeometry x="177.5" y="130" width="25" height="190" as="geometry"/>
                </mxCell>
                <mxCell id="hbVb--bb85XmrUPBMwIE-0" value="認証サーバ" style="rounded=0;whiteSpace=wrap;html=1;" parent="B2CG1FiTHEinYyqI2vtw-1" vertex="1">
                    <mxGeometry x="590" y="40" width="120" height="60" as="geometry"/>
                </mxCell>
                <mxCell id="hbVb--bb85XmrUPBMwIE-1" style="edgeStyle=none;rounded=0;orthogonalLoop=1;jettySize=auto;html=1;endArrow=none;endFill=0;dashed=1;strokeWidth=2;" parent="B2CG1FiTHEinYyqI2vtw-1" edge="1">
                    <mxGeometry relative="1" as="geometry">
                        <mxPoint x="649.5" y="820" as="targetPoint"/>
                        <mxPoint x="649.5" y="100" as="sourcePoint"/>
                    </mxGeometry>
                </mxCell>
                <mxCell id="hbVb--bb85XmrUPBMwIE-2" value="" style="rounded=0;whiteSpace=wrap;html=1;" parent="B2CG1FiTHEinYyqI2vtw-1" vertex="1">
                    <mxGeometry x="637.5" y="170" width="25" height="60" as="geometry"/>
                </mxCell>
                <mxCell id="utzBI5hmlKz-owM-BOif-3" value="Actor" style="shape=umlActor;verticalLabelPosition=bottom;verticalAlign=top;html=1;outlineConnect=0;" parent="B2CG1FiTHEinYyqI2vtw-1" vertex="1">
                    <mxGeometry y="20" width="40" height="80" as="geometry"/>
                </mxCell>
                <mxCell id="utzBI5hmlKz-owM-BOif-4" style="edgeStyle=none;rounded=0;orthogonalLoop=1;jettySize=auto;html=1;endArrow=none;endFill=0;dashed=1;strokeWidth=2;" parent="B2CG1FiTHEinYyqI2vtw-1" edge="1">
                    <mxGeometry relative="1" as="geometry">
                        <mxPoint x="19.5" y="840" as="targetPoint"/>
                        <mxPoint x="19.5" y="120" as="sourcePoint"/>
                    </mxGeometry>
                </mxCell>
                <mxCell id="utzBI5hmlKz-owM-BOif-5" value="" style="rounded=0;whiteSpace=wrap;html=1;" parent="B2CG1FiTHEinYyqI2vtw-1" vertex="1">
                    <mxGeometry x="7.5" y="140" width="25" height="620" as="geometry"/>
                </mxCell>
                <mxCell id="ttY3_KK54V144PO3dBTy-1" value="" style="endArrow=classic;html=1;" parent="B2CG1FiTHEinYyqI2vtw-1" edge="1">
                    <mxGeometry width="50" height="50" relative="1" as="geometry">
                        <mxPoint x="30" y="140" as="sourcePoint"/>
                        <mxPoint x="176" y="140" as="targetPoint"/>
                    </mxGeometry>
                </mxCell>
                <mxCell id="utzBI5hmlKz-owM-BOif-6" value="" style="endArrow=classic;html=1;strokeWidth=1;" parent="B2CG1FiTHEinYyqI2vtw-1" edge="1">
                    <mxGeometry width="50" height="50" relative="1" as="geometry">
                        <mxPoint x="202.5" y="180" as="sourcePoint"/>
                        <mxPoint x="635" y="180" as="targetPoint"/>
                    </mxGeometry>
                </mxCell>
                <mxCell id="utzBI5hmlKz-owM-BOif-7" value="id、password" style="edgeLabel;html=1;align=center;verticalAlign=middle;resizable=0;points=[];" parent="utzBI5hmlKz-owM-BOif-6" connectable="0" vertex="1">
                    <mxGeometry x="0.1129" y="2" relative="1" as="geometry">
                        <mxPoint x="-29" y="-8" as="offset"/>
                    </mxGeometry>
                </mxCell>
                <mxCell id="ttY3_KK54V144PO3dBTy-2" value="ログイン" style="text;html=1;strokeColor=none;fillColor=none;align=center;verticalAlign=middle;whiteSpace=wrap;rounded=0;" parent="B2CG1FiTHEinYyqI2vtw-1" vertex="1">
                    <mxGeometry x="80" y="120" width="50" height="20" as="geometry"/>
                </mxCell>
                <mxCell id="ttY3_KK54V144PO3dBTy-3" value="" style="endArrow=classic;html=1;dashed=1;entryX=1.06;entryY=0.435;entryDx=0;entryDy=0;entryPerimeter=0;" parent="B2CG1FiTHEinYyqI2vtw-1" target="utzBI5hmlKz-owM-BOif-2" edge="1">
                    <mxGeometry width="50" height="50" relative="1" as="geometry">
                        <mxPoint x="637.5" y="210" as="sourcePoint"/>
                        <mxPoint x="480" y="210" as="targetPoint"/>
                    </mxGeometry>
                </mxCell>
                <mxCell id="ttY3_KK54V144PO3dBTy-4" value="認証結果" style="text;html=1;strokeColor=none;fillColor=none;align=center;verticalAlign=middle;whiteSpace=wrap;rounded=0;" parent="B2CG1FiTHEinYyqI2vtw-1" vertex="1">
                    <mxGeometry x="386" y="220" width="56" height="20" as="geometry"/>
                </mxCell>
                <mxCell id="utzBI5hmlKz-owM-BOif-8" value="問題一覧&lt;br&gt;(ホーム)" style="rounded=0;whiteSpace=wrap;html=1;" parent="B2CG1FiTHEinYyqI2vtw-1" vertex="1">
                    <mxGeometry x="280" y="40" width="120" height="60" as="geometry"/>
                </mxCell>
                <mxCell id="utzBI5hmlKz-owM-BOif-9" style="edgeStyle=none;rounded=0;orthogonalLoop=1;jettySize=auto;html=1;endArrow=none;endFill=0;dashed=1;strokeWidth=2;startArrow=none;" parent="B2CG1FiTHEinYyqI2vtw-1" source="utzBI5hmlKz-owM-BOif-10" edge="1">
                    <mxGeometry relative="1" as="geometry">
                        <mxPoint x="339.4999999999998" y="820" as="targetPoint"/>
                        <mxPoint x="339.4999999999998" y="100" as="sourcePoint"/>
                    </mxGeometry>
                </mxCell>
                <mxCell id="utzBI5hmlKz-owM-BOif-10" value="" style="rounded=0;whiteSpace=wrap;html=1;" parent="B2CG1FiTHEinYyqI2vtw-1" vertex="1">
                    <mxGeometry x="327.5" y="260" width="25" height="150" as="geometry"/>
                </mxCell>
                <mxCell id="utzBI5hmlKz-owM-BOif-11" value="" style="edgeStyle=none;rounded=0;orthogonalLoop=1;jettySize=auto;html=1;endArrow=none;endFill=0;dashed=1;strokeWidth=2;" parent="B2CG1FiTHEinYyqI2vtw-1" target="utzBI5hmlKz-owM-BOif-10" edge="1">
                    <mxGeometry relative="1" as="geometry">
                        <mxPoint x="339.4999999999998" y="820" as="targetPoint"/>
                        <mxPoint x="339.4999999999998" y="100" as="sourcePoint"/>
                    </mxGeometry>
                </mxCell>
                <mxCell id="utzBI5hmlKz-owM-BOif-12" value="問題サーバ" style="rounded=0;whiteSpace=wrap;html=1;" parent="B2CG1FiTHEinYyqI2vtw-1" vertex="1">
                    <mxGeometry x="760" y="40" width="120" height="60" as="geometry"/>
                </mxCell>
                <mxCell id="utzBI5hmlKz-owM-BOif-13" style="edgeStyle=none;rounded=0;orthogonalLoop=1;jettySize=auto;html=1;endArrow=none;endFill=0;dashed=1;strokeWidth=2;startArrow=none;" parent="B2CG1FiTHEinYyqI2vtw-1" source="F836DlNZuw7V7hqSQVUt-0" edge="1">
                    <mxGeometry relative="1" as="geometry">
                        <mxPoint x="819.4999999999998" y="820" as="targetPoint"/>
                        <mxPoint x="819.4999999999998" y="100" as="sourcePoint"/>
                    </mxGeometry>
                </mxCell>
                <mxCell id="utzBI5hmlKz-owM-BOif-14" value="" style="rounded=0;whiteSpace=wrap;html=1;" parent="B2CG1FiTHEinYyqI2vtw-1" vertex="1">
                    <mxGeometry x="807.5" y="260" width="25" height="100" as="geometry"/>
                </mxCell>
                <mxCell id="utzBI5hmlKz-owM-BOif-15" value="" style="edgeStyle=none;rounded=0;orthogonalLoop=1;jettySize=auto;html=1;endArrow=none;endFill=0;dashed=1;strokeWidth=2;" parent="B2CG1FiTHEinYyqI2vtw-1" target="utzBI5hmlKz-owM-BOif-14" edge="1">
                    <mxGeometry relative="1" as="geometry">
                        <mxPoint x="819.4999999999998" y="820" as="targetPoint"/>
                        <mxPoint x="819.4999999999998" y="100" as="sourcePoint"/>
                    </mxGeometry>
                </mxCell>
                <mxCell id="utzBI5hmlKz-owM-BOif-16" value="" style="endArrow=classic;html=1;strokeWidth=1;" parent="B2CG1FiTHEinYyqI2vtw-1" edge="1">
                    <mxGeometry width="50" height="50" relative="1" as="geometry">
                        <mxPoint x="203" y="275" as="sourcePoint"/>
                        <mxPoint x="326" y="276" as="targetPoint"/>
                    </mxGeometry>
                </mxCell>
                <mxCell id="utzBI5hmlKz-owM-BOif-17" value="画面遷移" style="edgeLabel;html=1;align=center;verticalAlign=middle;resizable=0;points=[];" parent="utzBI5hmlKz-owM-BOif-16" connectable="0" vertex="1">
                    <mxGeometry x="0.261" y="1" relative="1" as="geometry">
                        <mxPoint x="-11" y="-14" as="offset"/>
                    </mxGeometry>
                </mxCell>
                <mxCell id="XwFQ0G4WHHch-jsKTTvz-1" value="opt" style="text;html=1;strokeColor=none;fillColor=none;align=center;verticalAlign=middle;whiteSpace=wrap;rounded=0;" parent="B2CG1FiTHEinYyqI2vtw-1" vertex="1">
                    <mxGeometry x="120" y="150" width="40" height="20" as="geometry"/>
                </mxCell>
                <mxCell id="utzBI5hmlKz-owM-BOif-18" value="" style="endArrow=classic;html=1;strokeWidth=1;entryX=-0.003;entryY=0.296;entryDx=0;entryDy=0;entryPerimeter=0;" parent="B2CG1FiTHEinYyqI2vtw-1" target="utzBI5hmlKz-owM-BOif-14" edge="1">
                    <mxGeometry width="50" height="50" relative="1" as="geometry">
                        <mxPoint x="352.5" y="289.58" as="sourcePoint"/>
                        <mxPoint x="800" y="290" as="targetPoint"/>
                    </mxGeometry>
                </mxCell>
                <mxCell id="utzBI5hmlKz-owM-BOif-19" value="問題取得要求" style="edgeLabel;html=1;align=center;verticalAlign=middle;resizable=0;points=[];" parent="utzBI5hmlKz-owM-BOif-18" connectable="0" vertex="1">
                    <mxGeometry x="0.0799" y="-2" relative="1" as="geometry">
                        <mxPoint x="1" y="-12" as="offset"/>
                    </mxGeometry>
                </mxCell>
                <mxCell id="utzBI5hmlKz-owM-BOif-20" value="" style="endArrow=classic;html=1;dashed=1;" parent="B2CG1FiTHEinYyqI2vtw-1" edge="1">
                    <mxGeometry width="50" height="50" relative="1" as="geometry">
                        <mxPoint x="807.5" y="340" as="sourcePoint"/>
                        <mxPoint x="353" y="340" as="targetPoint"/>
                    </mxGeometry>
                </mxCell>
                <mxCell id="utzBI5hmlKz-owM-BOif-21" value="問題" style="edgeLabel;html=1;align=center;verticalAlign=middle;resizable=0;points=[];" parent="utzBI5hmlKz-owM-BOif-20" connectable="0" vertex="1">
                    <mxGeometry x="-0.0882" y="-2" relative="1" as="geometry">
                        <mxPoint y="-8" as="offset"/>
                    </mxGeometry>
                </mxCell>
                <mxCell id="XwFQ0G4WHHch-jsKTTvz-4" value="[アカウント情報未入力]" style="text;html=1;strokeColor=none;fillColor=none;align=center;verticalAlign=middle;whiteSpace=wrap;rounded=0;" parent="B2CG1FiTHEinYyqI2vtw-1" vertex="1">
                    <mxGeometry x="117.5" y="180" width="60" height="20" as="geometry"/>
                </mxCell>
                <mxCell id="ZUjEQMO3xcYK6bG_-Uqm-0" value="問題作成画面" style="rounded=0;whiteSpace=wrap;html=1;" parent="B2CG1FiTHEinYyqI2vtw-1" vertex="1">
                    <mxGeometry x="450" y="40" width="120" height="60" as="geometry"/>
                </mxCell>
                <mxCell id="ZUjEQMO3xcYK6bG_-Uqm-1" style="edgeStyle=none;rounded=0;orthogonalLoop=1;jettySize=auto;html=1;endArrow=none;endFill=0;dashed=1;strokeWidth=2;startArrow=none;" parent="B2CG1FiTHEinYyqI2vtw-1" source="ZUjEQMO3xcYK6bG_-Uqm-2" edge="1">
                    <mxGeometry relative="1" as="geometry">
                        <mxPoint x="509.4999999999998" y="820" as="targetPoint"/>
                        <mxPoint x="509.4999999999998" y="100" as="sourcePoint"/>
                    </mxGeometry>
                </mxCell>
                <mxCell id="ZUjEQMO3xcYK6bG_-Uqm-2" value="" style="rounded=0;whiteSpace=wrap;html=1;" parent="B2CG1FiTHEinYyqI2vtw-1" vertex="1">
                    <mxGeometry x="497.5" y="370" width="25" height="100" as="geometry"/>
                </mxCell>
                <mxCell id="ZUjEQMO3xcYK6bG_-Uqm-3" value="" style="edgeStyle=none;rounded=0;orthogonalLoop=1;jettySize=auto;html=1;endArrow=none;endFill=0;dashed=1;strokeWidth=2;" parent="B2CG1FiTHEinYyqI2vtw-1" target="ZUjEQMO3xcYK6bG_-Uqm-2" edge="1">
                    <mxGeometry relative="1" as="geometry">
                        <mxPoint x="509.4999999999998" y="820" as="targetPoint"/>
                        <mxPoint x="509.4999999999998" y="100" as="sourcePoint"/>
                    </mxGeometry>
                </mxCell>
                <mxCell id="ZUjEQMO3xcYK6bG_-Uqm-4" value="" style="endArrow=classic;html=1;strokeWidth=1;entryX=-0.029;entryY=0.124;entryDx=0;entryDy=0;entryPerimeter=0;" parent="B2CG1FiTHEinYyqI2vtw-1" target="ZUjEQMO3xcYK6bG_-Uqm-2" edge="1">
                    <mxGeometry width="50" height="50" relative="1" as="geometry">
                        <mxPoint x="353" y="382" as="sourcePoint"/>
                        <mxPoint x="490" y="382" as="targetPoint"/>
                    </mxGeometry>
                </mxCell>
                <mxCell id="ZUjEQMO3xcYK6bG_-Uqm-5" value="画面遷移" style="edgeLabel;html=1;align=center;verticalAlign=middle;resizable=0;points=[];" parent="ZUjEQMO3xcYK6bG_-Uqm-4" connectable="0" vertex="1">
                    <mxGeometry x="0.261" y="1" relative="1" as="geometry">
                        <mxPoint x="-13" y="-10" as="offset"/>
                    </mxGeometry>
                </mxCell>
                <mxCell id="XAsHkoRtLXZXz3RSu67c-1" value="" style="endArrow=classic;html=1;" parent="B2CG1FiTHEinYyqI2vtw-1" edge="1">
                    <mxGeometry width="50" height="50" relative="1" as="geometry">
                        <mxPoint x="522.5" y="400" as="sourcePoint"/>
                        <mxPoint x="806" y="401" as="targetPoint"/>
                    </mxGeometry>
                </mxCell>
                <mxCell id="F836DlNZuw7V7hqSQVUt-0" value="" style="rounded=0;whiteSpace=wrap;html=1;" parent="B2CG1FiTHEinYyqI2vtw-1" vertex="1">
                    <mxGeometry x="807.5" y="390" width="25" height="90" as="geometry"/>
                </mxCell>
                <mxCell id="F836DlNZuw7V7hqSQVUt-1" value="" style="edgeStyle=none;rounded=0;orthogonalLoop=1;jettySize=auto;html=1;endArrow=none;endFill=0;dashed=1;strokeWidth=2;startArrow=none;" parent="B2CG1FiTHEinYyqI2vtw-1" source="utzBI5hmlKz-owM-BOif-14" target="F836DlNZuw7V7hqSQVUt-0" edge="1">
                    <mxGeometry relative="1" as="geometry">
                        <mxPoint x="819.4999999999998" y="820" as="targetPoint"/>
                        <mxPoint x="819.9509803921569" y="360" as="sourcePoint"/>
                    </mxGeometry>
                </mxCell>
                <mxCell id="XAsHkoRtLXZXz3RSu67c-2" value="問題登録要求" style="text;html=1;strokeColor=none;fillColor=none;align=center;verticalAlign=middle;whiteSpace=wrap;rounded=0;" parent="B2CG1FiTHEinYyqI2vtw-1" vertex="1">
                    <mxGeometry x="570" y="380" width="80" height="20" as="geometry"/>
                </mxCell>
                <mxCell id="XJN64DMY-tjW-EzfupWc-0" value="" style="endArrow=classic;html=1;dashed=1;exitX=0.921;exitY=0.389;exitDx=0;exitDy=0;exitPerimeter=0;entryX=-0.05;entryY=0.205;entryDx=0;entryDy=0;entryPerimeter=0;" parent="B2CG1FiTHEinYyqI2vtw-1" source="F836DlNZuw7V7hqSQVUt-0" target="6DOwRIM5p0fjZrTABR4s-2" edge="1">
                    <mxGeometry width="50" height="50" relative="1" as="geometry">
                        <mxPoint x="940" y="454.71" as="sourcePoint"/>
                        <mxPoint x="870" y="454.71" as="targetPoint"/>
                    </mxGeometry>
                </mxCell>
                <mxCell id="XJN64DMY-tjW-EzfupWc-1" value="問題登録完了通知" style="edgeLabel;html=1;align=center;verticalAlign=middle;resizable=0;points=[];" parent="XJN64DMY-tjW-EzfupWc-0" connectable="0" vertex="1">
                    <mxGeometry x="-0.0882" y="-2" relative="1" as="geometry">
                        <mxPoint x="-3" y="-7" as="offset"/>
                    </mxGeometry>
                </mxCell>
                <mxCell id="UWnEBFZTOuTCQUFVgDqL-2" value="alt" style="text;html=1;strokeColor=none;fillColor=none;align=center;verticalAlign=middle;whiteSpace=wrap;rounded=0;" parent="B2CG1FiTHEinYyqI2vtw-1" vertex="1">
                    <mxGeometry x="430" y="410" width="40" height="20" as="geometry"/>
                </mxCell>
                <mxCell id="UWnEBFZTOuTCQUFVgDqL-3" value="[成功]" style="text;html=1;strokeColor=none;fillColor=none;align=center;verticalAlign=middle;whiteSpace=wrap;rounded=0;" parent="B2CG1FiTHEinYyqI2vtw-1" vertex="1">
                    <mxGeometry x="840" y="430" width="40" height="20" as="geometry"/>
                </mxCell>
                <mxCell id="yz-CsxpcPw2v3CnrR67Q-0" value="" style="endArrow=classic;html=1;strokeWidth=1;exitX=0.98;exitY=0.356;exitDx=0;exitDy=0;exitPerimeter=0;entryX=-0.049;entryY=0.673;entryDx=0;entryDy=0;entryPerimeter=0;" parent="B2CG1FiTHEinYyqI2vtw-1" source="utzBI5hmlKz-owM-BOif-5" target="utzBI5hmlKz-owM-BOif-10" edge="1">
                    <mxGeometry width="50" height="50" relative="1" as="geometry">
                        <mxPoint x="63.75" y="370" as="sourcePoint"/>
                        <mxPoint x="316.25" y="370" as="targetPoint"/>
                    </mxGeometry>
                </mxCell>
                <mxCell id="yz-CsxpcPw2v3CnrR67Q-1" value="新規作成" style="edgeLabel;html=1;align=center;verticalAlign=middle;resizable=0;points=[];" parent="yz-CsxpcPw2v3CnrR67Q-0" connectable="0" vertex="1">
                    <mxGeometry x="-0.1804" y="-2" relative="1" as="geometry">
                        <mxPoint x="8" y="-13" as="offset"/>
                    </mxGeometry>
                </mxCell>
                <mxCell id="rBUuQ6UjVP0G6H4K2_tm-2" value="[失敗]" style="text;html=1;strokeColor=none;fillColor=none;align=center;verticalAlign=middle;whiteSpace=wrap;rounded=0;" parent="B2CG1FiTHEinYyqI2vtw-1" vertex="1">
                    <mxGeometry x="540" y="460" width="40" height="20" as="geometry"/>
                </mxCell>
                <mxCell id="6DOwRIM5p0fjZrTABR4s-0" value="問題プレビュー画面" style="rounded=0;whiteSpace=wrap;html=1;" parent="B2CG1FiTHEinYyqI2vtw-1" vertex="1">
                    <mxGeometry x="920" y="40" width="120" height="60" as="geometry"/>
                </mxCell>
                <mxCell id="6DOwRIM5p0fjZrTABR4s-1" value="" style="edgeStyle=none;rounded=0;orthogonalLoop=1;jettySize=auto;html=1;endArrow=none;endFill=0;dashed=1;strokeWidth=2;" parent="B2CG1FiTHEinYyqI2vtw-1" edge="1">
                    <mxGeometry relative="1" as="geometry">
                        <mxPoint x="980" y="840" as="targetPoint"/>
                        <mxPoint x="979.7099999999998" y="100" as="sourcePoint"/>
                    </mxGeometry>
                </mxCell>
                <mxCell id="6DOwRIM5p0fjZrTABR4s-2" value="" style="rounded=0;whiteSpace=wrap;html=1;" parent="B2CG1FiTHEinYyqI2vtw-1" vertex="1">
                    <mxGeometry x="967.5" y="405" width="25" height="100" as="geometry"/>
                </mxCell>
                <mxCell id="rBUuQ6UjVP0G6H4K2_tm-11" value="" style="endArrow=classic;html=1;entryX=1.02;entryY=0.87;entryDx=0;entryDy=0;entryPerimeter=0;dashed=1;" parent="B2CG1FiTHEinYyqI2vtw-1" target="ZUjEQMO3xcYK6bG_-Uqm-2" edge="1">
                    <mxGeometry width="50" height="50" relative="1" as="geometry">
                        <mxPoint x="807.5" y="455" as="sourcePoint"/>
                        <mxPoint x="857.5" y="405" as="targetPoint"/>
                    </mxGeometry>
                </mxCell>
                <mxCell id="rBUuQ6UjVP0G6H4K2_tm-12" value="失敗通知" style="text;html=1;strokeColor=none;fillColor=none;align=center;verticalAlign=middle;whiteSpace=wrap;rounded=0;" parent="B2CG1FiTHEinYyqI2vtw-1" vertex="1">
                    <mxGeometry x="590" y="460" width="50" height="20" as="geometry"/>
                </mxCell>
                <mxCell id="4bkUl__U9_dh2ldFyv4g-1" value="" style="rounded=0;whiteSpace=wrap;html=1;" parent="B2CG1FiTHEinYyqI2vtw-1" vertex="1">
                    <mxGeometry x="330" y="480" width="25" height="150" as="geometry"/>
                </mxCell>
                <mxCell id="XwFQ0G4WHHch-jsKTTvz-0" value="" style="rounded=0;whiteSpace=wrap;html=1;fillColor=none;" parent="B2CG1FiTHEinYyqI2vtw-1" vertex="1">
                    <mxGeometry x="120" y="150" width="600" height="90" as="geometry"/>
                </mxCell>
                <mxCell id="na1bkw6KJdtW9q--CI8a-3" value="" style="endArrow=classic;html=1;strokeWidth=1;exitX=0.034;exitY=0.878;exitDx=0;exitDy=0;exitPerimeter=0;entryX=1.025;entryY=0.085;entryDx=0;entryDy=0;entryPerimeter=0;" parent="B2CG1FiTHEinYyqI2vtw-1" source="6DOwRIM5p0fjZrTABR4s-2" target="4bkUl__U9_dh2ldFyv4g-1" edge="1">
                    <mxGeometry width="50" height="50" relative="1" as="geometry">
                        <mxPoint x="968" y="463" as="sourcePoint"/>
                        <mxPoint x="360" y="493" as="targetPoint"/>
                    </mxGeometry>
                </mxCell>
                <mxCell id="na1bkw6KJdtW9q--CI8a-4" value="新規作成" style="edgeLabel;html=1;align=center;verticalAlign=middle;resizable=0;points=[];" parent="na1bkw6KJdtW9q--CI8a-3" connectable="0" vertex="1">
                    <mxGeometry x="-0.1804" y="-2" relative="1" as="geometry">
                        <mxPoint x="8" y="-13" as="offset"/>
                    </mxGeometry>
                </mxCell>
                <mxCell id="na1bkw6KJdtW9q--CI8a-5" value="Text" style="edgeLabel;html=1;align=center;verticalAlign=middle;resizable=0;points=[];" parent="na1bkw6KJdtW9q--CI8a-3" connectable="0" vertex="1">
                    <mxGeometry x="0.1099" y="-2" relative="1" as="geometry">
                        <mxPoint x="42" y="-11" as="offset"/>
                    </mxGeometry>
                </mxCell>
                <mxCell id="na1bkw6KJdtW9q--CI8a-6" value="画面遷移" style="edgeLabel;html=1;align=center;verticalAlign=middle;resizable=0;points=[];" parent="na1bkw6KJdtW9q--CI8a-3" connectable="0" vertex="1">
                    <mxGeometry x="-0.036" y="-11" relative="1" as="geometry">
                        <mxPoint as="offset"/>
                    </mxGeometry>
                </mxCell>
                <mxCell id="UWnEBFZTOuTCQUFVgDqL-1" value="" style="rounded=0;whiteSpace=wrap;html=1;fillColor=none;" parent="B2CG1FiTHEinYyqI2vtw-1" vertex="1">
                    <mxGeometry x="430" y="410" width="590" height="110" as="geometry"/>
                </mxCell>
                <mxCell id="na1bkw6KJdtW9q--CI8a-9" value="" style="endArrow=classic;html=1;exitX=-0.033;exitY=0.547;exitDx=0;exitDy=0;exitPerimeter=0;entryX=1;entryY=0.418;entryDx=0;entryDy=0;entryPerimeter=0;" parent="B2CG1FiTHEinYyqI2vtw-1" source="4bkUl__U9_dh2ldFyv4g-1" target="na1bkw6KJdtW9q--CI8a-11" edge="1">
                    <mxGeometry width="50" height="50" relative="1" as="geometry">
                        <mxPoint x="104" y="470" as="sourcePoint"/>
                        <mxPoint x="220" y="560" as="targetPoint"/>
                    </mxGeometry>
                </mxCell>
                <mxCell id="na1bkw6KJdtW9q--CI8a-10" value="ログアウト" style="edgeLabel;html=1;align=center;verticalAlign=middle;resizable=0;points=[];" parent="na1bkw6KJdtW9q--CI8a-9" connectable="0" vertex="1">
                    <mxGeometry x="-0.1968" y="-4" relative="1" as="geometry">
                        <mxPoint x="-13" y="-7" as="offset"/>
                    </mxGeometry>
                </mxCell>
                <mxCell id="na1bkw6KJdtW9q--CI8a-11" value="" style="rounded=0;whiteSpace=wrap;html=1;" parent="B2CG1FiTHEinYyqI2vtw-1" vertex="1">
                    <mxGeometry x="177.5" y="480" width="25" height="190" as="geometry"/>
                </mxCell>
            </root>
        </mxGraphModel>
    </diagram>
    <diagram id="gROaTUliSkzxh4B-wmeA" name="問題をユーザに表示する機能">
        <mxGraphModel dx="1321" dy="1058" grid="1" gridSize="10" guides="1" tooltips="1" connect="1" arrows="1" fold="1" page="1" pageScale="1" pageWidth="827" pageHeight="1169" math="0" shadow="0">
            <root>
                <mxCell id="Gy4V3HJr_4ZSDoUX3Gm_-0"/>
                <mxCell id="Gy4V3HJr_4ZSDoUX3Gm_-1" parent="Gy4V3HJr_4ZSDoUX3Gm_-0"/>
                <mxCell id="hAojyyxlkgEpfGLFsqgb-2" style="edgeStyle=none;orthogonalLoop=1;jettySize=auto;html=1;endArrow=none;endFill=0;dashed=1;dashPattern=1 1;exitX=0.5;exitY=1;exitDx=0;exitDy=0;" parent="Gy4V3HJr_4ZSDoUX3Gm_-1" source="hAojyyxlkgEpfGLFsqgb-0" edge="1">
                    <mxGeometry relative="1" as="geometry">
                        <mxPoint x="580" y="890" as="targetPoint"/>
                        <mxPoint x="452.5" y="110" as="sourcePoint"/>
                    </mxGeometry>
                </mxCell>
                <mxCell id="uxcldWnN1Mq5YsqGGJZq-0" value="" style="edgeStyle=orthogonalEdgeStyle;orthogonalLoop=1;jettySize=auto;html=1;" parent="Gy4V3HJr_4ZSDoUX3Gm_-1" source="7LPVZCbx-Rw0WXJ_nC7--0" target="TPWWit2uPsKAUfbSw8aJ-1" edge="1">
                    <mxGeometry relative="1" as="geometry"/>
                </mxCell>
                <mxCell id="7LPVZCbx-Rw0WXJ_nC7--0" value="Actor" style="shape=umlActor;verticalLabelPosition=bottom;verticalAlign=top;html=1;outlineConnect=0;" parent="Gy4V3HJr_4ZSDoUX3Gm_-1" vertex="1">
                    <mxGeometry x="67.5" y="50" width="40" height="80" as="geometry"/>
                </mxCell>
                <mxCell id="TPWWit2uPsKAUfbSw8aJ-0" style="edgeStyle=none;orthogonalLoop=1;jettySize=auto;html=1;endArrow=none;endFill=0;dashed=1;dashPattern=1 1;" parent="Gy4V3HJr_4ZSDoUX3Gm_-1" edge="1">
                    <mxGeometry relative="1" as="geometry">
                        <mxPoint x="87" y="870" as="targetPoint"/>
                        <mxPoint x="87" y="150" as="sourcePoint"/>
                    </mxGeometry>
                </mxCell>
                <mxCell id="_ly3R1eEoto6VeP1WxsM-1" value="" style="edgeStyle=orthogonalEdgeStyle;orthogonalLoop=1;jettySize=auto;html=1;" parent="Gy4V3HJr_4ZSDoUX3Gm_-1" source="TPWWit2uPsKAUfbSw8aJ-1" target="4tH3t71AnKXylCv2cIOB-1" edge="1">
                    <mxGeometry relative="1" as="geometry">
                        <Array as="points">
                            <mxPoint x="140" y="180"/>
                            <mxPoint x="140" y="180"/>
                        </Array>
                    </mxGeometry>
                </mxCell>
                <mxCell id="TPWWit2uPsKAUfbSw8aJ-1" value="" style="whiteSpace=wrap;html=1;" parent="Gy4V3HJr_4ZSDoUX3Gm_-1" vertex="1">
                    <mxGeometry x="75" y="180" width="25" height="620" as="geometry"/>
                </mxCell>
                <mxCell id="4tH3t71AnKXylCv2cIOB-0" style="edgeStyle=none;orthogonalLoop=1;jettySize=auto;html=1;endArrow=none;endFill=0;dashed=1;dashPattern=1 1;exitX=0.5;exitY=1;exitDx=0;exitDy=0;" parent="Gy4V3HJr_4ZSDoUX3Gm_-1" source="4tH3t71AnKXylCv2cIOB-2" edge="1">
                    <mxGeometry relative="1" as="geometry">
                        <mxPoint x="212" y="870" as="targetPoint"/>
                        <mxPoint x="212" y="150" as="sourcePoint"/>
                    </mxGeometry>
                </mxCell>
                <mxCell id="CrOuPeRdj2IM0c0jFhH8-0" style="edgeStyle=orthogonalEdgeStyle;orthogonalLoop=1;jettySize=auto;html=1;entryX=0.08;entryY=0.081;entryDx=0;entryDy=0;entryPerimeter=0;exitX=0.974;exitY=0.081;exitDx=0;exitDy=0;exitPerimeter=0;" parent="Gy4V3HJr_4ZSDoUX3Gm_-1" source="4tH3t71AnKXylCv2cIOB-1" target="241kpLnAZwFroS9b9mB7-1" edge="1">
                    <mxGeometry relative="1" as="geometry">
                        <mxPoint x="230" y="230" as="sourcePoint"/>
                        <Array as="points"/>
                    </mxGeometry>
                </mxCell>
                <mxCell id="4tH3t71AnKXylCv2cIOB-1" value="" style="whiteSpace=wrap;html=1;" parent="Gy4V3HJr_4ZSDoUX3Gm_-1" vertex="1">
                    <mxGeometry x="200" y="180" width="25" height="620" as="geometry"/>
                </mxCell>
                <mxCell id="4tH3t71AnKXylCv2cIOB-2" value="問題一覧&lt;br&gt;(ホーム)" style="whiteSpace=wrap;html=1;" parent="Gy4V3HJr_4ZSDoUX3Gm_-1" vertex="1">
                    <mxGeometry x="152.5" y="60" width="120" height="40" as="geometry"/>
                </mxCell>
                <mxCell id="OLzJrwHSDleeGNAbDeym-0" value="ログイン" style="text;html=1;align=center;verticalAlign=middle;resizable=0;points=[];autosize=1;strokeColor=none;" parent="Gy4V3HJr_4ZSDoUX3Gm_-1" vertex="1">
                    <mxGeometry x="120" y="150" width="60" height="20" as="geometry"/>
                </mxCell>
                <mxCell id="241kpLnAZwFroS9b9mB7-0" style="edgeStyle=none;orthogonalLoop=1;jettySize=auto;html=1;endArrow=none;endFill=0;dashed=1;dashPattern=1 1;exitX=0.5;exitY=1;exitDx=0;exitDy=0;" parent="Gy4V3HJr_4ZSDoUX3Gm_-1" edge="1">
                    <mxGeometry relative="1" as="geometry">
                        <mxPoint x="382" y="870" as="targetPoint"/>
                        <mxPoint x="382.5" y="100" as="sourcePoint"/>
                    </mxGeometry>
                </mxCell>
                <mxCell id="sTRH5myJPESKCLbm9O6x-0" style="edgeStyle=orthogonalEdgeStyle;orthogonalLoop=1;jettySize=auto;html=1;exitX=1.052;exitY=0.078;exitDx=0;exitDy=0;entryX=-0.02;entryY=0.079;entryDx=0;entryDy=0;entryPerimeter=0;exitPerimeter=0;" parent="Gy4V3HJr_4ZSDoUX3Gm_-1" source="241kpLnAZwFroS9b9mB7-1" target="hAojyyxlkgEpfGLFsqgb-1" edge="1">
                    <mxGeometry relative="1" as="geometry">
                        <Array as="points">
                            <mxPoint x="395" y="228"/>
                        </Array>
                    </mxGeometry>
                </mxCell>
                <mxCell id="241kpLnAZwFroS9b9mB7-1" value="" style="whiteSpace=wrap;html=1;" parent="Gy4V3HJr_4ZSDoUX3Gm_-1" vertex="1">
                    <mxGeometry x="370" y="180" width="25" height="620" as="geometry"/>
                </mxCell>
                <mxCell id="241kpLnAZwFroS9b9mB7-2" value="問題サーバ" style="whiteSpace=wrap;html=1;" parent="Gy4V3HJr_4ZSDoUX3Gm_-1" vertex="1">
                    <mxGeometry x="320" y="60" width="120" height="40" as="geometry"/>
                </mxCell>
                <mxCell id="CrOuPeRdj2IM0c0jFhH8-1" value="問題リクエスト" style="text;html=1;align=center;verticalAlign=middle;resizable=0;points=[];autosize=1;strokeColor=none;" parent="Gy4V3HJr_4ZSDoUX3Gm_-1" vertex="1">
                    <mxGeometry x="250" y="200" width="100" height="20" as="geometry"/>
                </mxCell>
                <mxCell id="CrOuPeRdj2IM0c0jFhH8-4" value="問題形式にあったHTML" style="text;html=1;align=center;verticalAlign=middle;resizable=0;points=[];autosize=1;strokeColor=none;" parent="Gy4V3HJr_4ZSDoUX3Gm_-1" vertex="1">
                    <mxGeometry x="414" y="200" width="140" height="20" as="geometry"/>
                </mxCell>
                <mxCell id="hAojyyxlkgEpfGLFsqgb-0" value="問題解答画面" style="whiteSpace=wrap;html=1;" parent="Gy4V3HJr_4ZSDoUX3Gm_-1" vertex="1">
                    <mxGeometry x="520" y="60" width="120" height="40" as="geometry"/>
                </mxCell>
                <mxCell id="hAojyyxlkgEpfGLFsqgb-1" value="" style="whiteSpace=wrap;html=1;" parent="Gy4V3HJr_4ZSDoUX3Gm_-1" vertex="1">
                    <mxGeometry x="567.5" y="180" width="25" height="620" as="geometry"/>
                </mxCell>
            </root>
        </mxGraphModel>
    </diagram>
    <diagram id="5ERadwT8XadoJRK2K5o5" name="テンプレートから自動生成">
        <mxGraphModel dx="1321" dy="1058" grid="1" gridSize="10" guides="1" tooltips="1" connect="1" arrows="1" fold="1" page="1" pageScale="1" pageWidth="827" pageHeight="1169" math="0" shadow="0">
            <root>
                <mxCell id="aL7170ifwGcUeBjZn4Sa-0"/>
                <mxCell id="aL7170ifwGcUeBjZn4Sa-1" parent="aL7170ifwGcUeBjZn4Sa-0"/>
                <mxCell id="aL7170ifwGcUeBjZn4Sa-2" value="ログイン画面" style="rounded=0;whiteSpace=wrap;html=1;" parent="aL7170ifwGcUeBjZn4Sa-1" vertex="1">
                    <mxGeometry x="130" y="40" width="120" height="60" as="geometry"/>
                </mxCell>
                <mxCell id="aL7170ifwGcUeBjZn4Sa-3" style="edgeStyle=none;rounded=0;orthogonalLoop=1;jettySize=auto;html=1;endArrow=none;endFill=0;dashed=1;strokeWidth=2;" parent="aL7170ifwGcUeBjZn4Sa-1" edge="1">
                    <mxGeometry relative="1" as="geometry">
                        <mxPoint x="189.5" y="820" as="targetPoint"/>
                        <mxPoint x="189.5" y="100" as="sourcePoint"/>
                    </mxGeometry>
                </mxCell>
                <mxCell id="aL7170ifwGcUeBjZn4Sa-4" value="" style="rounded=0;whiteSpace=wrap;html=1;" parent="aL7170ifwGcUeBjZn4Sa-1" vertex="1">
                    <mxGeometry x="177.5" y="130" width="25" height="620" as="geometry"/>
                </mxCell>
                <mxCell id="aL7170ifwGcUeBjZn4Sa-5" value="認証サーバ" style="rounded=0;whiteSpace=wrap;html=1;" parent="aL7170ifwGcUeBjZn4Sa-1" vertex="1">
                    <mxGeometry x="590" y="40" width="120" height="60" as="geometry"/>
                </mxCell>
                <mxCell id="aL7170ifwGcUeBjZn4Sa-6" style="edgeStyle=none;rounded=0;orthogonalLoop=1;jettySize=auto;html=1;endArrow=none;endFill=0;dashed=1;strokeWidth=2;" parent="aL7170ifwGcUeBjZn4Sa-1" edge="1">
                    <mxGeometry relative="1" as="geometry">
                        <mxPoint x="649.5" y="820" as="targetPoint"/>
                        <mxPoint x="649.5" y="100" as="sourcePoint"/>
                    </mxGeometry>
                </mxCell>
                <mxCell id="aL7170ifwGcUeBjZn4Sa-7" value="" style="rounded=0;whiteSpace=wrap;html=1;" parent="aL7170ifwGcUeBjZn4Sa-1" vertex="1">
                    <mxGeometry x="637.5" y="170" width="25" height="60" as="geometry"/>
                </mxCell>
                <mxCell id="aL7170ifwGcUeBjZn4Sa-8" value="Actor" style="shape=umlActor;verticalLabelPosition=bottom;verticalAlign=top;html=1;outlineConnect=0;" parent="aL7170ifwGcUeBjZn4Sa-1" vertex="1">
                    <mxGeometry y="20" width="40" height="80" as="geometry"/>
                </mxCell>
                <mxCell id="aL7170ifwGcUeBjZn4Sa-9" style="edgeStyle=none;rounded=0;orthogonalLoop=1;jettySize=auto;html=1;endArrow=none;endFill=0;dashed=1;strokeWidth=2;" parent="aL7170ifwGcUeBjZn4Sa-1" edge="1">
                    <mxGeometry relative="1" as="geometry">
                        <mxPoint x="19.5" y="840" as="targetPoint"/>
                        <mxPoint x="19.5" y="120" as="sourcePoint"/>
                    </mxGeometry>
                </mxCell>
                <mxCell id="aL7170ifwGcUeBjZn4Sa-10" value="" style="rounded=0;whiteSpace=wrap;html=1;" parent="aL7170ifwGcUeBjZn4Sa-1" vertex="1">
                    <mxGeometry x="7.5" y="140" width="25" height="620" as="geometry"/>
                </mxCell>
                <mxCell id="aL7170ifwGcUeBjZn4Sa-11" value="" style="endArrow=classic;html=1;entryX=-0.06;entryY=0.016;entryDx=0;entryDy=0;entryPerimeter=0;" parent="aL7170ifwGcUeBjZn4Sa-1" target="aL7170ifwGcUeBjZn4Sa-4" edge="1">
                    <mxGeometry width="50" height="50" relative="1" as="geometry">
                        <mxPoint x="30" y="140" as="sourcePoint"/>
                        <mxPoint x="80" y="90" as="targetPoint"/>
                    </mxGeometry>
                </mxCell>
                <mxCell id="aL7170ifwGcUeBjZn4Sa-12" value="" style="endArrow=classic;html=1;strokeWidth=1;" parent="aL7170ifwGcUeBjZn4Sa-1" edge="1">
                    <mxGeometry width="50" height="50" relative="1" as="geometry">
                        <mxPoint x="202.5" y="180" as="sourcePoint"/>
                        <mxPoint x="635" y="180" as="targetPoint"/>
                    </mxGeometry>
                </mxCell>
                <mxCell id="aL7170ifwGcUeBjZn4Sa-13" value="id、password" style="edgeLabel;html=1;align=center;verticalAlign=middle;resizable=0;points=[];" parent="aL7170ifwGcUeBjZn4Sa-12" connectable="0" vertex="1">
                    <mxGeometry x="0.1129" y="2" relative="1" as="geometry">
                        <mxPoint x="-29" y="-8" as="offset"/>
                    </mxGeometry>
                </mxCell>
                <mxCell id="aL7170ifwGcUeBjZn4Sa-14" value="ログイン" style="text;html=1;strokeColor=none;fillColor=none;align=center;verticalAlign=middle;whiteSpace=wrap;rounded=0;" parent="aL7170ifwGcUeBjZn4Sa-1" vertex="1">
                    <mxGeometry x="80" y="120" width="50" height="20" as="geometry"/>
                </mxCell>
                <mxCell id="aL7170ifwGcUeBjZn4Sa-15" value="" style="endArrow=classic;html=1;dashed=1;entryX=1.1;entryY=0.131;entryDx=0;entryDy=0;entryPerimeter=0;" parent="aL7170ifwGcUeBjZn4Sa-1" target="aL7170ifwGcUeBjZn4Sa-4" edge="1">
                    <mxGeometry width="50" height="50" relative="1" as="geometry">
                        <mxPoint x="637.5" y="210" as="sourcePoint"/>
                        <mxPoint x="480" y="210" as="targetPoint"/>
                    </mxGeometry>
                </mxCell>
                <mxCell id="aL7170ifwGcUeBjZn4Sa-16" value="認証結果" style="text;html=1;strokeColor=none;fillColor=none;align=center;verticalAlign=middle;whiteSpace=wrap;rounded=0;" parent="aL7170ifwGcUeBjZn4Sa-1" vertex="1">
                    <mxGeometry x="386" y="220" width="56" height="20" as="geometry"/>
                </mxCell>
                <mxCell id="aL7170ifwGcUeBjZn4Sa-17" value="問題一覧&lt;br&gt;(ホーム)" style="rounded=0;whiteSpace=wrap;html=1;" parent="aL7170ifwGcUeBjZn4Sa-1" vertex="1">
                    <mxGeometry x="280" y="40" width="120" height="60" as="geometry"/>
                </mxCell>
                <mxCell id="aL7170ifwGcUeBjZn4Sa-18" style="edgeStyle=none;rounded=0;orthogonalLoop=1;jettySize=auto;html=1;endArrow=none;endFill=0;dashed=1;strokeWidth=2;startArrow=none;" parent="aL7170ifwGcUeBjZn4Sa-1" source="aL7170ifwGcUeBjZn4Sa-19" edge="1">
                    <mxGeometry relative="1" as="geometry">
                        <mxPoint x="339.4999999999998" y="820" as="targetPoint"/>
                        <mxPoint x="339.4999999999998" y="100" as="sourcePoint"/>
                    </mxGeometry>
                </mxCell>
                <mxCell id="aL7170ifwGcUeBjZn4Sa-19" value="" style="rounded=0;whiteSpace=wrap;html=1;" parent="aL7170ifwGcUeBjZn4Sa-1" vertex="1">
                    <mxGeometry x="327.5" y="260" width="25" height="150" as="geometry"/>
                </mxCell>
                <mxCell id="aL7170ifwGcUeBjZn4Sa-20" value="" style="edgeStyle=none;rounded=0;orthogonalLoop=1;jettySize=auto;html=1;endArrow=none;endFill=0;dashed=1;strokeWidth=2;" parent="aL7170ifwGcUeBjZn4Sa-1" target="aL7170ifwGcUeBjZn4Sa-19" edge="1">
                    <mxGeometry relative="1" as="geometry">
                        <mxPoint x="339.4999999999998" y="820" as="targetPoint"/>
                        <mxPoint x="339.4999999999998" y="100" as="sourcePoint"/>
                    </mxGeometry>
                </mxCell>
                <mxCell id="aL7170ifwGcUeBjZn4Sa-21" value="問題サーバ" style="rounded=0;whiteSpace=wrap;html=1;" parent="aL7170ifwGcUeBjZn4Sa-1" vertex="1">
                    <mxGeometry x="760" y="40" width="120" height="60" as="geometry"/>
                </mxCell>
                <mxCell id="aL7170ifwGcUeBjZn4Sa-22" style="edgeStyle=none;rounded=0;orthogonalLoop=1;jettySize=auto;html=1;endArrow=none;endFill=0;dashed=1;strokeWidth=2;startArrow=none;" parent="aL7170ifwGcUeBjZn4Sa-1" source="aL7170ifwGcUeBjZn4Sa-23" edge="1">
                    <mxGeometry relative="1" as="geometry">
                        <mxPoint x="819.4999999999998" y="820" as="targetPoint"/>
                        <mxPoint x="819.4999999999998" y="100" as="sourcePoint"/>
                    </mxGeometry>
                </mxCell>
                <mxCell id="aL7170ifwGcUeBjZn4Sa-23" value="" style="rounded=0;whiteSpace=wrap;html=1;" parent="aL7170ifwGcUeBjZn4Sa-1" vertex="1">
                    <mxGeometry x="807.5" y="260" width="25" height="100" as="geometry"/>
                </mxCell>
                <mxCell id="aL7170ifwGcUeBjZn4Sa-24" value="" style="edgeStyle=none;rounded=0;orthogonalLoop=1;jettySize=auto;html=1;endArrow=none;endFill=0;dashed=1;strokeWidth=2;" parent="aL7170ifwGcUeBjZn4Sa-1" target="aL7170ifwGcUeBjZn4Sa-23" edge="1">
                    <mxGeometry relative="1" as="geometry">
                        <mxPoint x="819.4999999999998" y="820" as="targetPoint"/>
                        <mxPoint x="819.4999999999998" y="100" as="sourcePoint"/>
                    </mxGeometry>
                </mxCell>
                <mxCell id="aL7170ifwGcUeBjZn4Sa-25" value="" style="endArrow=classic;html=1;strokeWidth=1;" parent="aL7170ifwGcUeBjZn4Sa-1" edge="1">
                    <mxGeometry width="50" height="50" relative="1" as="geometry">
                        <mxPoint x="203" y="275" as="sourcePoint"/>
                        <mxPoint x="326" y="276" as="targetPoint"/>
                    </mxGeometry>
                </mxCell>
                <mxCell id="aL7170ifwGcUeBjZn4Sa-26" value="画面遷移" style="edgeLabel;html=1;align=center;verticalAlign=middle;resizable=0;points=[];" parent="aL7170ifwGcUeBjZn4Sa-25" connectable="0" vertex="1">
                    <mxGeometry x="0.261" y="1" relative="1" as="geometry">
                        <mxPoint x="-11" y="-14" as="offset"/>
                    </mxGeometry>
                </mxCell>
                <mxCell id="aL7170ifwGcUeBjZn4Sa-27" value="opt" style="text;html=1;strokeColor=none;fillColor=none;align=center;verticalAlign=middle;whiteSpace=wrap;rounded=0;" parent="aL7170ifwGcUeBjZn4Sa-1" vertex="1">
                    <mxGeometry x="120" y="150" width="40" height="20" as="geometry"/>
                </mxCell>
                <mxCell id="aL7170ifwGcUeBjZn4Sa-28" value="" style="endArrow=classic;html=1;strokeWidth=1;entryX=-0.003;entryY=0.296;entryDx=0;entryDy=0;entryPerimeter=0;" parent="aL7170ifwGcUeBjZn4Sa-1" target="aL7170ifwGcUeBjZn4Sa-23" edge="1">
                    <mxGeometry width="50" height="50" relative="1" as="geometry">
                        <mxPoint x="352.5" y="289.5799999999999" as="sourcePoint"/>
                        <mxPoint x="800" y="290" as="targetPoint"/>
                    </mxGeometry>
                </mxCell>
                <mxCell id="aL7170ifwGcUeBjZn4Sa-29" value="問題取得要求" style="edgeLabel;html=1;align=center;verticalAlign=middle;resizable=0;points=[];" parent="aL7170ifwGcUeBjZn4Sa-28" connectable="0" vertex="1">
                    <mxGeometry x="0.0799" y="-2" relative="1" as="geometry">
                        <mxPoint x="1" y="-12" as="offset"/>
                    </mxGeometry>
                </mxCell>
                <mxCell id="aL7170ifwGcUeBjZn4Sa-30" value="" style="endArrow=classic;html=1;dashed=1;" parent="aL7170ifwGcUeBjZn4Sa-1" edge="1">
                    <mxGeometry width="50" height="50" relative="1" as="geometry">
                        <mxPoint x="807.5" y="340" as="sourcePoint"/>
                        <mxPoint x="353" y="340" as="targetPoint"/>
                    </mxGeometry>
                </mxCell>
                <mxCell id="aL7170ifwGcUeBjZn4Sa-31" value="問題" style="edgeLabel;html=1;align=center;verticalAlign=middle;resizable=0;points=[];" parent="aL7170ifwGcUeBjZn4Sa-30" connectable="0" vertex="1">
                    <mxGeometry x="-0.0882" y="-2" relative="1" as="geometry">
                        <mxPoint y="-8" as="offset"/>
                    </mxGeometry>
                </mxCell>
                <mxCell id="aL7170ifwGcUeBjZn4Sa-32" value="[アカウント情報未入力]" style="text;html=1;strokeColor=none;fillColor=none;align=center;verticalAlign=middle;whiteSpace=wrap;rounded=0;" parent="aL7170ifwGcUeBjZn4Sa-1" vertex="1">
                    <mxGeometry x="117.5" y="180" width="60" height="20" as="geometry"/>
                </mxCell>
                <mxCell id="aL7170ifwGcUeBjZn4Sa-33" value="問題作成画面" style="rounded=0;whiteSpace=wrap;html=1;" parent="aL7170ifwGcUeBjZn4Sa-1" vertex="1">
                    <mxGeometry x="450" y="40" width="120" height="60" as="geometry"/>
                </mxCell>
                <mxCell id="aL7170ifwGcUeBjZn4Sa-34" style="edgeStyle=none;rounded=0;orthogonalLoop=1;jettySize=auto;html=1;endArrow=none;endFill=0;dashed=1;strokeWidth=2;startArrow=none;" parent="aL7170ifwGcUeBjZn4Sa-1" source="aL7170ifwGcUeBjZn4Sa-35" edge="1">
                    <mxGeometry relative="1" as="geometry">
                        <mxPoint x="509.4999999999998" y="820" as="targetPoint"/>
                        <mxPoint x="509.4999999999998" y="100" as="sourcePoint"/>
                    </mxGeometry>
                </mxCell>
                <mxCell id="aL7170ifwGcUeBjZn4Sa-35" value="" style="rounded=0;whiteSpace=wrap;html=1;" parent="aL7170ifwGcUeBjZn4Sa-1" vertex="1">
                    <mxGeometry x="497.5" y="370" width="25" height="100" as="geometry"/>
                </mxCell>
                <mxCell id="aL7170ifwGcUeBjZn4Sa-36" value="" style="edgeStyle=none;rounded=0;orthogonalLoop=1;jettySize=auto;html=1;endArrow=none;endFill=0;dashed=1;strokeWidth=2;" parent="aL7170ifwGcUeBjZn4Sa-1" target="aL7170ifwGcUeBjZn4Sa-35" edge="1">
                    <mxGeometry relative="1" as="geometry">
                        <mxPoint x="509.4999999999998" y="820" as="targetPoint"/>
                        <mxPoint x="509.4999999999998" y="100" as="sourcePoint"/>
                    </mxGeometry>
                </mxCell>
                <mxCell id="aL7170ifwGcUeBjZn4Sa-37" value="" style="endArrow=classic;html=1;strokeWidth=1;entryX=-0.029;entryY=0.124;entryDx=0;entryDy=0;entryPerimeter=0;" parent="aL7170ifwGcUeBjZn4Sa-1" target="aL7170ifwGcUeBjZn4Sa-35" edge="1">
                    <mxGeometry width="50" height="50" relative="1" as="geometry">
                        <mxPoint x="353" y="382" as="sourcePoint"/>
                        <mxPoint x="490" y="382" as="targetPoint"/>
                    </mxGeometry>
                </mxCell>
                <mxCell id="aL7170ifwGcUeBjZn4Sa-38" value="画面遷移" style="edgeLabel;html=1;align=center;verticalAlign=middle;resizable=0;points=[];" parent="aL7170ifwGcUeBjZn4Sa-37" connectable="0" vertex="1">
                    <mxGeometry x="0.261" y="1" relative="1" as="geometry">
                        <mxPoint x="-13" y="-10" as="offset"/>
                    </mxGeometry>
                </mxCell>
                <mxCell id="aL7170ifwGcUeBjZn4Sa-39" value="" style="rounded=0;whiteSpace=wrap;html=1;fillColor=none;" parent="aL7170ifwGcUeBjZn4Sa-1" vertex="1">
                    <mxGeometry x="120" y="150" width="600" height="90" as="geometry"/>
                </mxCell>
            </root>
        </mxGraphModel>
    </diagram>
    <diagram id="2u_QF-GDFWrUbNq_QimC" name="問題集作成">
        <mxGraphModel dx="1321" dy="1058" grid="1" gridSize="10" guides="1" tooltips="1" connect="1" arrows="1" fold="1" page="1" pageScale="1" pageWidth="827" pageHeight="1169" background="none" math="0" shadow="0">
            <root>
                <mxCell id="BOpJ3soRBIoG50igfwAZ-0"/>
                <mxCell id="BOpJ3soRBIoG50igfwAZ-1" parent="BOpJ3soRBIoG50igfwAZ-0"/>
                <mxCell id="iLA2A0d1DUabdxj-DMyZ-1" value="問題一覧&lt;br&gt;(ホーム)" style="rounded=0;whiteSpace=wrap;html=1;" parent="BOpJ3soRBIoG50igfwAZ-1" vertex="1">
                    <mxGeometry x="40" y="40" width="120" height="60" as="geometry"/>
                </mxCell>
                <mxCell id="iLA2A0d1DUabdxj-DMyZ-2" style="edgeStyle=none;rounded=0;orthogonalLoop=1;jettySize=auto;html=1;endArrow=none;endFill=0;dashed=1;strokeWidth=2;startArrow=none;" parent="BOpJ3soRBIoG50igfwAZ-1" source="iLA2A0d1DUabdxj-DMyZ-3" edge="1">
                    <mxGeometry relative="1" as="geometry">
                        <mxPoint x="99" y="930" as="targetPoint"/>
                        <mxPoint x="99.49999999999977" y="100" as="sourcePoint"/>
                    </mxGeometry>
                </mxCell>
                <mxCell id="iLA2A0d1DUabdxj-DMyZ-3" value="" style="rounded=0;whiteSpace=wrap;html=1;" parent="BOpJ3soRBIoG50igfwAZ-1" vertex="1">
                    <mxGeometry x="87.5" y="150" width="25" height="730" as="geometry"/>
                </mxCell>
                <mxCell id="iLA2A0d1DUabdxj-DMyZ-4" value="" style="edgeStyle=none;rounded=0;orthogonalLoop=1;jettySize=auto;html=1;endArrow=none;endFill=0;dashed=1;strokeWidth=2;" parent="BOpJ3soRBIoG50igfwAZ-1" target="iLA2A0d1DUabdxj-DMyZ-3" edge="1">
                    <mxGeometry relative="1" as="geometry">
                        <mxPoint x="99.49999999999977" y="820" as="targetPoint"/>
                        <mxPoint x="99.49999999999977" y="100" as="sourcePoint"/>
                    </mxGeometry>
                </mxCell>
                <mxCell id="nupDLPrtAcQiyr_54YOV-0" value="問題集作成画面" style="rounded=0;whiteSpace=wrap;html=1;" parent="BOpJ3soRBIoG50igfwAZ-1" vertex="1">
                    <mxGeometry x="240" y="40" width="120" height="60" as="geometry"/>
                </mxCell>
                <mxCell id="nupDLPrtAcQiyr_54YOV-1" style="edgeStyle=none;rounded=0;orthogonalLoop=1;jettySize=auto;html=1;endArrow=none;endFill=0;dashed=1;strokeWidth=2;startArrow=none;" parent="BOpJ3soRBIoG50igfwAZ-1" source="nupDLPrtAcQiyr_54YOV-2" edge="1">
                    <mxGeometry relative="1" as="geometry">
                        <mxPoint x="299" y="920" as="targetPoint"/>
                        <mxPoint x="299.4999999999998" y="100" as="sourcePoint"/>
                    </mxGeometry>
                </mxCell>
                <mxCell id="nupDLPrtAcQiyr_54YOV-2" value="" style="rounded=0;whiteSpace=wrap;html=1;" parent="BOpJ3soRBIoG50igfwAZ-1" vertex="1">
                    <mxGeometry x="287.5" y="170" width="25" height="570" as="geometry"/>
                </mxCell>
                <mxCell id="nupDLPrtAcQiyr_54YOV-3" value="" style="edgeStyle=none;rounded=0;orthogonalLoop=1;jettySize=auto;html=1;endArrow=none;endFill=0;dashed=1;strokeWidth=2;" parent="BOpJ3soRBIoG50igfwAZ-1" target="nupDLPrtAcQiyr_54YOV-2" edge="1">
                    <mxGeometry relative="1" as="geometry">
                        <mxPoint x="299.4999999999998" y="820" as="targetPoint"/>
                        <mxPoint x="299.4999999999998" y="100" as="sourcePoint"/>
                    </mxGeometry>
                </mxCell>
                <mxCell id="14i7x6ZLEElE_BqqN1_1-0" value="問題サーバ" style="rounded=0;whiteSpace=wrap;html=1;" parent="BOpJ3soRBIoG50igfwAZ-1" vertex="1">
                    <mxGeometry x="400" y="40" width="120" height="60" as="geometry"/>
                </mxCell>
                <mxCell id="14i7x6ZLEElE_BqqN1_1-2" value="" style="edgeStyle=none;rounded=0;orthogonalLoop=1;jettySize=auto;html=1;endArrow=none;endFill=0;dashed=1;strokeWidth=2;" parent="BOpJ3soRBIoG50igfwAZ-1" edge="1">
                    <mxGeometry relative="1" as="geometry">
                        <mxPoint x="459" y="920" as="targetPoint"/>
                        <mxPoint x="459.4999999999998" y="100" as="sourcePoint"/>
                    </mxGeometry>
                </mxCell>
                <mxCell id="14i7x6ZLEElE_BqqN1_1-1" value="" style="rounded=0;whiteSpace=wrap;html=1;" parent="BOpJ3soRBIoG50igfwAZ-1" vertex="1">
                    <mxGeometry x="447.5" y="200" width="25" height="100" as="geometry"/>
                </mxCell>
                <mxCell id="14i7x6ZLEElE_BqqN1_1-3" value="" style="endArrow=classic;html=1;strokeWidth=2;" parent="BOpJ3soRBIoG50igfwAZ-1" edge="1">
                    <mxGeometry width="50" height="50" relative="1" as="geometry">
                        <mxPoint x="114" y="184" as="sourcePoint"/>
                        <mxPoint x="288" y="184" as="targetPoint"/>
                    </mxGeometry>
                </mxCell>
                <mxCell id="14i7x6ZLEElE_BqqN1_1-4" value="画面遷移" style="edgeLabel;html=1;align=center;verticalAlign=middle;resizable=0;points=[];" parent="14i7x6ZLEElE_BqqN1_1-3" connectable="0" vertex="1">
                    <mxGeometry x="-0.1171" y="1" relative="1" as="geometry">
                        <mxPoint y="-13" as="offset"/>
                    </mxGeometry>
                </mxCell>
                <mxCell id="14i7x6ZLEElE_BqqN1_1-5" value="" style="endArrow=classic;html=1;strokeWidth=2;entryX=0.02;entryY=0.041;entryDx=0;entryDy=0;entryPerimeter=0;" parent="BOpJ3soRBIoG50igfwAZ-1" edge="1">
                    <mxGeometry width="50" height="50" relative="1" as="geometry">
                        <mxPoint x="315" y="210" as="sourcePoint"/>
                        <mxPoint x="447.4999999999999" y="210.00000000000006" as="targetPoint"/>
                    </mxGeometry>
                </mxCell>
                <mxCell id="14i7x6ZLEElE_BqqN1_1-6" value="問題履歴取得要求" style="edgeLabel;html=1;align=center;verticalAlign=middle;resizable=0;points=[];" parent="14i7x6ZLEElE_BqqN1_1-5" connectable="0" vertex="1">
                    <mxGeometry x="-0.1171" y="1" relative="1" as="geometry">
                        <mxPoint y="-13" as="offset"/>
                    </mxGeometry>
                </mxCell>
                <mxCell id="14i7x6ZLEElE_BqqN1_1-7" value="" style="endArrow=classic;html=1;strokeWidth=2;exitX=-0.06;exitY=0.696;exitDx=0;exitDy=0;exitPerimeter=0;dashed=1;" parent="BOpJ3soRBIoG50igfwAZ-1" source="14i7x6ZLEElE_BqqN1_1-1" edge="1">
                    <mxGeometry width="50" height="50" relative="1" as="geometry">
                        <mxPoint x="370" y="270" as="sourcePoint"/>
                        <mxPoint x="320" y="269" as="targetPoint"/>
                    </mxGeometry>
                </mxCell>
                <mxCell id="14i7x6ZLEElE_BqqN1_1-8" value="問題履歴" style="edgeLabel;html=1;align=center;verticalAlign=middle;resizable=0;points=[];" parent="14i7x6ZLEElE_BqqN1_1-7" connectable="0" vertex="1">
                    <mxGeometry x="0.1071" relative="1" as="geometry">
                        <mxPoint x="7" y="-9" as="offset"/>
                    </mxGeometry>
                </mxCell>
                <mxCell id="qauFGOCinV_MjWT7Ofeb-0" value="" style="rounded=0;whiteSpace=wrap;html=1;" parent="BOpJ3soRBIoG50igfwAZ-1" vertex="1">
                    <mxGeometry x="447.5" y="340" width="25" height="100" as="geometry"/>
                </mxCell>
                <mxCell id="qauFGOCinV_MjWT7Ofeb-1" value="" style="endArrow=classic;html=1;strokeWidth=2;entryX=0.02;entryY=0.041;entryDx=0;entryDy=0;entryPerimeter=0;exitX=1.095;exitY=0.118;exitDx=0;exitDy=0;exitPerimeter=0;" parent="BOpJ3soRBIoG50igfwAZ-1" edge="1">
                    <mxGeometry width="50" height="50" relative="1" as="geometry">
                        <mxPoint x="314.8749999999999" y="350.12" as="sourcePoint"/>
                        <mxPoint x="447.4999999999999" y="350" as="targetPoint"/>
                    </mxGeometry>
                </mxCell>
                <mxCell id="qauFGOCinV_MjWT7Ofeb-2" value="問題検索要求" style="edgeLabel;html=1;align=center;verticalAlign=middle;resizable=0;points=[];" parent="qauFGOCinV_MjWT7Ofeb-1" connectable="0" vertex="1">
                    <mxGeometry x="-0.1171" y="1" relative="1" as="geometry">
                        <mxPoint y="-13" as="offset"/>
                    </mxGeometry>
                </mxCell>
                <mxCell id="qauFGOCinV_MjWT7Ofeb-3" value="" style="endArrow=classic;html=1;strokeWidth=2;exitX=-0.06;exitY=0.696;exitDx=0;exitDy=0;exitPerimeter=0;entryX=1.06;entryY=0.292;entryDx=0;entryDy=0;entryPerimeter=0;dashed=1;" parent="BOpJ3soRBIoG50igfwAZ-1" source="qauFGOCinV_MjWT7Ofeb-0" edge="1">
                    <mxGeometry width="50" height="50" relative="1" as="geometry">
                        <mxPoint x="370" y="410" as="sourcePoint"/>
                        <mxPoint x="314" y="409.28" as="targetPoint"/>
                    </mxGeometry>
                </mxCell>
                <mxCell id="qauFGOCinV_MjWT7Ofeb-4" value="検索結果" style="edgeLabel;html=1;align=center;verticalAlign=middle;resizable=0;points=[];" parent="qauFGOCinV_MjWT7Ofeb-3" connectable="0" vertex="1">
                    <mxGeometry x="0.1071" relative="1" as="geometry">
                        <mxPoint x="7" y="-9" as="offset"/>
                    </mxGeometry>
                </mxCell>
                <mxCell id="qauFGOCinV_MjWT7Ofeb-5" value="" style="rounded=0;whiteSpace=wrap;html=1;" parent="BOpJ3soRBIoG50igfwAZ-1" vertex="1">
                    <mxGeometry x="447.5" y="535" width="25" height="155" as="geometry"/>
                </mxCell>
                <mxCell id="qauFGOCinV_MjWT7Ofeb-6" value="" style="endArrow=classic;html=1;strokeWidth=2;entryX=0.02;entryY=0.041;entryDx=0;entryDy=0;entryPerimeter=0;" parent="BOpJ3soRBIoG50igfwAZ-1" edge="1">
                    <mxGeometry width="50" height="50" relative="1" as="geometry">
                        <mxPoint x="315" y="545" as="sourcePoint"/>
                        <mxPoint x="447.4999999999999" y="545" as="targetPoint"/>
                    </mxGeometry>
                </mxCell>
                <mxCell id="qauFGOCinV_MjWT7Ofeb-7" value="問題集登録要求" style="edgeLabel;html=1;align=center;verticalAlign=middle;resizable=0;points=[];" parent="qauFGOCinV_MjWT7Ofeb-6" connectable="0" vertex="1">
                    <mxGeometry x="-0.1171" y="1" relative="1" as="geometry">
                        <mxPoint y="-13" as="offset"/>
                    </mxGeometry>
                </mxCell>
                <mxCell id="06D-fUpCPojp41KxPg_r-4" value="" style="group" parent="BOpJ3soRBIoG50igfwAZ-1" connectable="0" vertex="1">
                    <mxGeometry x="70" y="560" width="430" height="120" as="geometry"/>
                </mxCell>
                <mxCell id="06D-fUpCPojp41KxPg_r-1" value="" style="rounded=0;whiteSpace=wrap;html=1;fillColor=none;" parent="06D-fUpCPojp41KxPg_r-4" vertex="1">
                    <mxGeometry width="430" height="120.00000000000001" as="geometry"/>
                </mxCell>
                <mxCell id="06D-fUpCPojp41KxPg_r-2" value="alt" style="text;html=1;strokeColor=none;fillColor=none;align=center;verticalAlign=middle;whiteSpace=wrap;rounded=0;" parent="06D-fUpCPojp41KxPg_r-4" vertex="1">
                    <mxGeometry width="63.7037037037037" height="14.11764705882353" as="geometry"/>
                </mxCell>
                <mxCell id="06D-fUpCPojp41KxPg_r-3" value="" style="endArrow=none;dashed=1;html=1;strokeWidth=2;entryX=0;entryY=0.5;entryDx=0;entryDy=0;exitX=1;exitY=0.5;exitDx=0;exitDy=0;" parent="06D-fUpCPojp41KxPg_r-4" source="06D-fUpCPojp41KxPg_r-1" target="06D-fUpCPojp41KxPg_r-1" edge="1">
                    <mxGeometry width="50" height="50" relative="1" as="geometry">
                        <mxPoint x="780.3703703703703" y="405.8823529411765" as="sourcePoint"/>
                        <mxPoint x="457.8703703703703" y="388.2352941176471" as="targetPoint"/>
                    </mxGeometry>
                </mxCell>
                <mxCell id="z5o7XUY7W6AG47HL1OV3-2" value="" style="endArrow=classic;html=1;strokeWidth=2;entryX=1.06;entryY=0.292;entryDx=0;entryDy=0;entryPerimeter=0;dashed=1;" parent="06D-fUpCPojp41KxPg_r-4" edge="1">
                    <mxGeometry width="50" height="50" relative="1" as="geometry">
                        <mxPoint x="328.95" y="90" as="sourcePoint"/>
                        <mxPoint x="101.05" y="90" as="targetPoint"/>
                    </mxGeometry>
                </mxCell>
                <mxCell id="z5o7XUY7W6AG47HL1OV3-3" value="[失敗]失敗通知]" style="edgeLabel;html=1;align=center;verticalAlign=middle;resizable=0;points=[];" parent="z5o7XUY7W6AG47HL1OV3-2" connectable="0" vertex="1">
                    <mxGeometry x="0.1071" relative="1" as="geometry">
                        <mxPoint x="7" y="-9" as="offset"/>
                    </mxGeometry>
                </mxCell>
                <mxCell id="z5o7XUY7W6AG47HL1OV3-0" value="" style="endArrow=classic;html=1;strokeWidth=2;dashed=1;" parent="BOpJ3soRBIoG50igfwAZ-1" edge="1">
                    <mxGeometry width="50" height="50" relative="1" as="geometry">
                        <mxPoint x="448" y="600" as="sourcePoint"/>
                        <mxPoint x="110" y="600" as="targetPoint"/>
                    </mxGeometry>
                </mxCell>
                <mxCell id="z5o7XUY7W6AG47HL1OV3-1" value="[成功]通知" style="edgeLabel;html=1;align=center;verticalAlign=middle;resizable=0;points=[];" parent="z5o7XUY7W6AG47HL1OV3-0" connectable="0" vertex="1">
                    <mxGeometry x="0.1071" relative="1" as="geometry">
                        <mxPoint x="7" y="-9" as="offset"/>
                    </mxGeometry>
                </mxCell>
                <mxCell id="uR8Psh5JtXLlnoMvZmCj-0" value="マイページ" style="rounded=0;whiteSpace=wrap;html=1;" parent="BOpJ3soRBIoG50igfwAZ-1" vertex="1">
                    <mxGeometry x="600" y="40" width="120" height="60" as="geometry"/>
                </mxCell>
                <mxCell id="uR8Psh5JtXLlnoMvZmCj-1" value="" style="edgeStyle=none;rounded=0;orthogonalLoop=1;jettySize=auto;html=1;endArrow=none;endFill=0;dashed=1;strokeWidth=2;" parent="BOpJ3soRBIoG50igfwAZ-1" edge="1">
                    <mxGeometry relative="1" as="geometry">
                        <mxPoint x="660" y="930" as="targetPoint"/>
                        <mxPoint x="659.71" y="100" as="sourcePoint"/>
                    </mxGeometry>
                </mxCell>
                <mxCell id="uR8Psh5JtXLlnoMvZmCj-2" value="問題集編集画面" style="rounded=0;whiteSpace=wrap;html=1;" parent="BOpJ3soRBIoG50igfwAZ-1" vertex="1">
                    <mxGeometry x="790" y="40" width="120" height="60" as="geometry"/>
                </mxCell>
                <mxCell id="uR8Psh5JtXLlnoMvZmCj-3" value="" style="edgeStyle=none;rounded=0;orthogonalLoop=1;jettySize=auto;html=1;endArrow=none;endFill=0;dashed=1;strokeWidth=2;" parent="BOpJ3soRBIoG50igfwAZ-1" edge="1">
                    <mxGeometry relative="1" as="geometry">
                        <mxPoint x="850" y="930" as="targetPoint"/>
                        <mxPoint x="849.71" y="100" as="sourcePoint"/>
                    </mxGeometry>
                </mxCell>
                <mxCell id="uR8Psh5JtXLlnoMvZmCj-4" value="" style="rounded=0;whiteSpace=wrap;html=1;" parent="BOpJ3soRBIoG50igfwAZ-1" vertex="1">
                    <mxGeometry x="647.5" y="760" width="25" height="30" as="geometry"/>
                </mxCell>
                <mxCell id="uR8Psh5JtXLlnoMvZmCj-5" value="" style="endArrow=classic;html=1;strokeWidth=2;" parent="BOpJ3soRBIoG50igfwAZ-1" edge="1">
                    <mxGeometry width="50" height="50" relative="1" as="geometry">
                        <mxPoint x="112.5" y="770" as="sourcePoint"/>
                        <mxPoint x="646" y="770" as="targetPoint"/>
                    </mxGeometry>
                </mxCell>
                <mxCell id="uR8Psh5JtXLlnoMvZmCj-6" value="画面遷移" style="edgeLabel;html=1;align=center;verticalAlign=middle;resizable=0;points=[];" parent="uR8Psh5JtXLlnoMvZmCj-5" connectable="0" vertex="1">
                    <mxGeometry x="-0.1171" y="1" relative="1" as="geometry">
                        <mxPoint y="-13" as="offset"/>
                    </mxGeometry>
                </mxCell>
                <mxCell id="uR8Psh5JtXLlnoMvZmCj-7" value="" style="rounded=0;whiteSpace=wrap;html=1;" parent="BOpJ3soRBIoG50igfwAZ-1" vertex="1">
                    <mxGeometry x="837.5" y="760" width="25" height="150" as="geometry"/>
                </mxCell>
                <mxCell id="uR8Psh5JtXLlnoMvZmCj-8" value="" style="endArrow=classic;html=1;strokeWidth=2;" parent="BOpJ3soRBIoG50igfwAZ-1" edge="1">
                    <mxGeometry width="50" height="50" relative="1" as="geometry">
                        <mxPoint x="672.5" y="780" as="sourcePoint"/>
                        <mxPoint x="830" y="780" as="targetPoint"/>
                    </mxGeometry>
                </mxCell>
                <mxCell id="uR8Psh5JtXLlnoMvZmCj-9" value="画面遷移" style="edgeLabel;html=1;align=center;verticalAlign=middle;resizable=0;points=[];" parent="uR8Psh5JtXLlnoMvZmCj-8" connectable="0" vertex="1">
                    <mxGeometry x="-0.1171" y="1" relative="1" as="geometry">
                        <mxPoint y="-13" as="offset"/>
                    </mxGeometry>
                </mxCell>
                <mxCell id="uR8Psh5JtXLlnoMvZmCj-16" value="" style="endArrow=classic;html=1;strokeWidth=2;dashed=1;" parent="BOpJ3soRBIoG50igfwAZ-1" edge="1">
                    <mxGeometry width="50" height="50" relative="1" as="geometry">
                        <mxPoint x="838" y="820" as="sourcePoint"/>
                        <mxPoint x="120" y="820" as="targetPoint"/>
                    </mxGeometry>
                </mxCell>
                <mxCell id="uR8Psh5JtXLlnoMvZmCj-17" value="[成功]通知" style="edgeLabel;html=1;align=center;verticalAlign=middle;resizable=0;points=[];" parent="uR8Psh5JtXLlnoMvZmCj-16" connectable="0" vertex="1">
                    <mxGeometry x="0.1071" relative="1" as="geometry">
                        <mxPoint x="7" y="-9" as="offset"/>
                    </mxGeometry>
                </mxCell>
                <mxCell id="uR8Psh5JtXLlnoMvZmCj-10" value="" style="group" parent="BOpJ3soRBIoG50igfwAZ-1" connectable="0" vertex="1">
                    <mxGeometry x="60" y="780" width="830" height="120" as="geometry"/>
                </mxCell>
                <mxCell id="uR8Psh5JtXLlnoMvZmCj-11" value="" style="rounded=0;whiteSpace=wrap;html=1;fillColor=none;" parent="uR8Psh5JtXLlnoMvZmCj-10" vertex="1">
                    <mxGeometry width="830" height="120.00000000000001" as="geometry"/>
                </mxCell>
                <mxCell id="uR8Psh5JtXLlnoMvZmCj-12" value="alt" style="text;html=1;strokeColor=none;fillColor=none;align=center;verticalAlign=middle;whiteSpace=wrap;rounded=0;" parent="uR8Psh5JtXLlnoMvZmCj-10" vertex="1">
                    <mxGeometry width="122.96296296296296" height="14.11764705882353" as="geometry"/>
                </mxCell>
                <mxCell id="uR8Psh5JtXLlnoMvZmCj-13" value="" style="endArrow=none;dashed=1;html=1;strokeWidth=2;entryX=0;entryY=0.5;entryDx=0;entryDy=0;exitX=1;exitY=0.5;exitDx=0;exitDy=0;" parent="uR8Psh5JtXLlnoMvZmCj-10" source="uR8Psh5JtXLlnoMvZmCj-11" target="uR8Psh5JtXLlnoMvZmCj-11" edge="1">
                    <mxGeometry width="50" height="50" relative="1" as="geometry">
                        <mxPoint x="1506.2962962962963" y="405.8823529411765" as="sourcePoint"/>
                        <mxPoint x="883.7962962962963" y="388.2352941176471" as="targetPoint"/>
                    </mxGeometry>
                </mxCell>
                <mxCell id="uR8Psh5JtXLlnoMvZmCj-14" value="" style="endArrow=classic;html=1;strokeWidth=2;dashed=1;exitX=-0.084;exitY=0.731;exitDx=0;exitDy=0;exitPerimeter=0;" parent="uR8Psh5JtXLlnoMvZmCj-10" source="uR8Psh5JtXLlnoMvZmCj-7" edge="1">
                    <mxGeometry width="50" height="50" relative="1" as="geometry">
                        <mxPoint x="579.0697674418604" y="90" as="sourcePoint"/>
                        <mxPoint x="60" y="90" as="targetPoint"/>
                    </mxGeometry>
                </mxCell>
                <mxCell id="uR8Psh5JtXLlnoMvZmCj-15" value="[失敗]失敗通知]" style="edgeLabel;html=1;align=center;verticalAlign=middle;resizable=0;points=[];" parent="uR8Psh5JtXLlnoMvZmCj-14" connectable="0" vertex="1">
                    <mxGeometry x="0.1071" relative="1" as="geometry">
                        <mxPoint x="7" y="-9" as="offset"/>
                    </mxGeometry>
                </mxCell>
            </root>
        </mxGraphModel>
    </diagram>
</mxfile>